<?xml version="1.0"?>
<svg xmlns:rdf="http://www.w3.org/1999/02/22-rdf-syntax-ns#" xmlns="http://www.w3.org/2000/svg" xmlns:cc="http://creativecommons.org/ns#" xmlns:dc="http://purl.org/dc/elements/1.1/" xmlns:svg="http://www.w3.org/2000/svg" id="svg2" viewBox="0 0 250 150" version="1.1">
  <g id="layer1" transform="translate(-18.699 -10.869)">
    <g id="g3856" transform="matrix(1 0 0 .88974 11.596 -169.1)">
      <rect id="rect2993" fill-rule="evenodd" transform="matrix(.93277 -.36046 .70160 .71257 0 0)" height="64.552" width="202.91" stroke="#008000" y="322.75" x="-226.55" stroke-width="4.427" fill="#0f0"/>
      <path id="path2990" fill="#008000" d="m117.19 287.24-3.8723-4.469 6.8257-3.3388 4.5942 4.6661c1.7537-0.67765 3.6427-0.9535 5.6669-0.82753 2.0282 0.11572 4.4851 0.40959 7.3708 0.88163l-3.1197 6.245c-1.4021-0.25176-2.6397-0.3687-3.7129-0.35081-1.0732 0.0179-2.1552 0.2377-3.2462 0.65925-2.1309 0.82352-2.8816 1.7838-2.2519 2.8807 0.70401 0.48631 1.6689 0.70865 2.8947 0.667 1.2258-0.0416 2.7707-0.25943 4.6347-0.65353 1.8892-0.3685 2.9609-0.56661 3.2151-0.59435 2.3007-0.23649 4.7792-0.14938 7.4357 0.26135 2.6879 0.44273 4.9925 1.6112 6.9137 3.5052 3.0691 3.1172 2.8788 6.4048-0.57085 9.8631-0.35192 0.2859-0.71954 0.55582-1.1029 0.80976-0.36212 0.28985-0.64036 0.5076-0.83473 0.65325l4.5942 4.6661-6.8407 3.5165-5.0659-5.1452c-0.00001 0.00001-0.00001 0.00001 0 0-0.00001 0.00001-0.54211 0.12132-1.6263 0.36392-1.1469 0.29331-2.2422 0.49612-3.2858 0.60841-2.1815 0.12878-4.2373 0.14944-6.1673 0.0619-1.93-0.0875-2.9327-0.16953-3.0082-0.24619l1.765-6.8061c3.5773 0.53113 6.5792 0.32782 9.0058-0.60994 2.4674-0.95348 3.2262-1.9125 2.2766-2.877-0.77357-0.78565-1.9697-1.0641-3.5884-0.83545-0.40261 0.006-1.4414 0.15143-3.1165 0.43718-1.6601 0.31531-2.9708 0.53521-3.9319 0.65972-0.97766 0.12211-2.1501 0.16074-3.5173 0.11589-2.1568-0.0748-4.2222-0.47141-6.1965-1.1899-1.949-0.69294-3.4518-1.576-4.5084-2.6491-1.5252-1.6062-2.128-3.2692-1.8083-4.9888 0.32057-1.6758 1.0084-3.1144 2.0635-4.3158 0.74813-0.82695 1.4535-1.3685 2.1162-1.6246z"/>
      <path id="path2995" d="m197.5 246.98-0.68942-0.79568 1.2153-0.59445 0.81798 0.83078c0.31225-0.12065 0.64857-0.16976 1.009-0.14734 0.3611 0.0206 0.79854 0.0729 1.3123 0.15698l-0.55546 1.1119c-0.24963-0.0448-0.46999-0.0656-0.66107-0.0625-0.19108 0.003-0.38373 0.0423-0.57796 0.11738-0.37941 0.14662-0.51305 0.31759-0.40094 0.5129 0.12533 0.0866 0.29714 0.12617 0.51539 0.11876 0.21825-0.007 0.49332-0.0462 0.8252-0.11636 0.33638-0.0656 0.52717-0.10088 0.57244-0.10582 0.40962-0.0421 0.85092-0.0266 1.3239 0.0465 0.47857 0.0788 0.88889 0.28686 1.231 0.62409 0.54644 0.555 0.51256 1.1404-0.10165 1.7561-0.0627 0.0509-0.1281 0.099-0.19635 0.14419-0.0644 0.0516-0.11402 0.0904-0.14861 0.11631l0.81798 0.83079-1.218 0.62609-0.90196-0.91608c0 0.00001-0.0965 0.0216-0.28956 0.0648-0.20423 0.0522-0.39921 0.0883-0.58502 0.10832-0.3884 0.0229-0.75443 0.0266-1.0981 0.011-0.34362-0.0156-0.52215-0.0302-0.53558-0.0438l0.31423-1.2118c0.63693 0.0946 1.1714 0.0584 1.6034-0.1086 0.43931-0.16976 0.57442-0.3405 0.40534-0.51224-0.13773-0.13988-0.35069-0.18947-0.63888-0.14875-0.0717 0.001-0.25665 0.027-0.55489 0.0778-0.29557 0.0562-0.52893 0.0953-0.70007 0.11746-0.17404 0.0218-0.38282 0.0286-0.62624 0.0206-0.384-0.0133-0.75175-0.0839-1.1032-0.21186-0.34702-0.12337-0.61459-0.2806-0.80271-0.47166-0.27201-0.28581-0.37888-0.58206-0.32196-0.88823 0.0571-0.29836 0.17953-0.5545 0.36738-0.7684 0.13321-0.14724 0.2588-0.24366 0.37679-0.28926zm9.1034-0.54237c2.1784 2.2124 1.0814 5.1123-2.4501 6.477s-8.1603 0.67749-10.339-1.535c-2.1784-2.2124-1.0814-5.1123 2.4501-6.477s8.1603-0.6775 10.339 1.535z" fill="#008000" fill-rule="evenodd"/>
      <path id="path3769" d="m229.98 279.97-0.68943-0.79568 1.2153-0.59444 0.81798 0.83078c0.31225-0.12065 0.64857-0.16977 1.009-0.14735 0.3611 0.0206 0.79854 0.0729 1.3123 0.15698l-0.55545 1.1119c-0.24963-0.0448-0.46999-0.0657-0.66107-0.0625-0.19109 0.003-0.38373 0.0423-0.57796 0.11737-0.37941 0.14663-0.51305 0.31759-0.40095 0.5129 0.12534 0.0866 0.29715 0.12617 0.5154 0.11876 0.21825-0.007 0.49332-0.0462 0.8252-0.11635 0.33638-0.0656 0.52717-0.10089 0.57244-0.10583 0.40962-0.0421 0.85091-0.0266 1.3239 0.0465 0.47857 0.0788 0.88889 0.28686 1.231 0.62409 0.54645 0.555 0.51256 1.1404-0.10164 1.7561-0.0627 0.0509-0.1281 0.099-0.19635 0.14419-0.0644 0.0516-0.11402 0.0904-0.14861 0.11632l0.81798 0.83078-1.218 0.6261-0.90196-0.91608s-0.0965 0.0216-0.28956 0.0648c-0.20423 0.0522-0.39922 0.0883-0.58502 0.10832-0.3884 0.0229-0.75443 0.0266-1.0981 0.011-0.34362-0.0156-0.52215-0.0302-0.53558-0.0438l0.31423-1.2118c0.63693 0.0946 1.1714 0.0584 1.6034-0.1086 0.43931-0.16976 0.57442-0.34051 0.40534-0.51225-0.13773-0.13988-0.3507-0.18946-0.63888-0.14875-0.0717 0.001-0.25665 0.027-0.55489 0.0779-0.29557 0.0561-0.52893 0.0953-0.70007 0.11745-0.17404 0.0218-0.38282 0.0286-0.62624 0.0206-0.384-0.0133-0.75175-0.0839-1.1032-0.21186-0.34702-0.12338-0.61459-0.2806-0.80271-0.47166-0.27201-0.28581-0.37888-0.58207-0.32196-0.88823 0.0571-0.29837 0.17953-0.55451 0.36738-0.76841 0.13321-0.14724 0.2588-0.24365 0.37679-0.28926zm9.1034-0.54237c2.1784 2.2124 1.0814 5.1123-2.4501 6.477s-8.1603 0.6775-10.339-1.535c-2.1784-2.2124-1.0814-5.1123 2.4501-6.477s8.1603-0.67749 10.339 1.535z" fill="#008000" fill-rule="evenodd"/>
      <path id="path3771" d="m61.769 344.97-0.68943-0.79568 1.2153-0.59444 0.81798 0.83078c0.31225-0.12065 0.64856-0.16977 1.009-0.14735 0.3611 0.0206 0.79854 0.0729 1.3123 0.15698l-0.55545 1.1119c-0.24963-0.0448-0.46999-0.0657-0.66107-0.0625-0.19109 0.003-0.38373 0.0423-0.57796 0.11737-0.37941 0.14663-0.51305 0.31759-0.40094 0.5129 0.12533 0.0866 0.29714 0.12617 0.51539 0.11876 0.21825-0.007 0.49332-0.0462 0.8252-0.11635 0.33638-0.0656 0.52717-0.10089 0.57244-0.10583 0.40962-0.0421 0.85092-0.0266 1.3239 0.0465 0.47857 0.0788 0.88889 0.28686 1.231 0.62409 0.54644 0.555 0.51256 1.1404-0.10164 1.7561-0.06265 0.0509-0.1281 0.099-0.19635 0.14419-0.06444 0.0516-0.11402 0.0904-0.14861 0.11632l0.81799 0.83078-1.218 0.6261-0.90196-0.91608c0.000005 0 0.000005 0 0 0 0.000005 0-0.09651 0.0216-0.28956 0.0648-0.20422 0.0522-0.39921 0.0883-0.58501 0.10832-0.38841 0.0229-0.75443 0.0266-1.0981 0.011-0.34362-0.0156-0.52215-0.0302-0.53558-0.0438l0.31423-1.2118c0.63693 0.0946 1.1714 0.0584 1.6034-0.1086 0.43931-0.16976 0.57443-0.34051 0.40534-0.51225-0.13774-0.13988-0.3507-0.18946-0.63889-0.14875-0.07174 0.001-0.25664 0.027-0.55489 0.0778-0.29557 0.0561-0.52893 0.0953-0.70007 0.11745-0.17404 0.0218-0.38282 0.0286-0.62624 0.0206-0.384-0.0133-0.75176-0.0839-1.1033-0.21186-0.34702-0.12338-0.61459-0.2806-0.80271-0.47167-0.272-0.2858-0.37888-0.58206-0.32196-0.88822 0.05707-0.29837 0.17953-0.55451 0.36738-0.76841 0.13321-0.14724 0.2588-0.24365 0.37679-0.28926zm9.1034-0.54237c2.1784 2.2124 1.0814 5.1123-2.4501 6.477s-8.1603 0.6775-10.339-1.535c-2.1784-2.2124-1.0814-5.1123 2.4501-6.477s8.1603-0.6775 10.339 1.535z" fill="#008000" fill-rule="evenodd"/>
      <path id="path3773" d="m29.844 312.54-0.68943-0.79568 1.2153-0.59445 0.81798 0.83078c0.31225-0.12065 0.64856-0.16976 1.009-0.14734 0.3611 0.0206 0.79854 0.0729 1.3123 0.15698l-0.55545 1.1119c-0.24963-0.0448-0.46999-0.0656-0.66107-0.0625-0.19109 0.003-0.38373 0.0423-0.57797 0.11738-0.37941 0.14662-0.51305 0.31759-0.40094 0.5129 0.12533 0.0866 0.29714 0.12617 0.51539 0.11876 0.21825-0.007 0.49332-0.0462 0.8252-0.11636 0.33639-0.0656 0.52717-0.10088 0.57244-0.10582 0.40962-0.0421 0.85092-0.0266 1.3239 0.0465 0.47857 0.0788 0.88889 0.28686 1.231 0.62409 0.54644 0.555 0.51256 1.1404-0.10164 1.7561-0.06265 0.0509-0.1281 0.099-0.19635 0.14419-0.06444 0.0516-0.11402 0.0904-0.14861 0.11631l0.81799 0.83079-1.218 0.62609-0.90196-0.91607c0.000005 0 0.000005 0 0 0 0.000005 0-0.09651 0.0216-0.28956 0.0648-0.20422 0.0522-0.39921 0.0883-0.58501 0.10832-0.38841 0.0229-0.75443 0.0266-1.0981 0.011-0.34362-0.0156-0.52215-0.0302-0.53558-0.0438l0.31423-1.2118c0.63693 0.0946 1.1714 0.0584 1.6034-0.1086 0.43931-0.16976 0.57443-0.3405 0.40535-0.51224-0.13774-0.13988-0.3507-0.18947-0.63889-0.14875-0.07174 0.001-0.25664 0.027-0.55489 0.0778-0.29557 0.0562-0.52893 0.0953-0.70007 0.11746-0.17404 0.0218-0.38282 0.0286-0.62624 0.0206-0.384-0.0133-0.75176-0.0839-1.1033-0.21186-0.34702-0.12337-0.61459-0.28059-0.80271-0.47166-0.272-0.28581-0.37888-0.58206-0.32196-0.88823 0.05707-0.29836 0.17953-0.5545 0.36738-0.7684 0.13321-0.14724 0.2588-0.24366 0.37679-0.28926zm9.1034-0.54237c2.1784 2.2124 1.0814 5.1123-2.4501 6.477s-8.1603 0.67749-10.339-1.535c-2.1784-2.2124-1.0814-5.1123 2.4501-6.477s8.1603-0.6775 10.339 1.535z" fill="#008000" fill-rule="evenodd"/>
      <rect id="rect3785" fill-rule="evenodd" transform="matrix(.93277 -.36046 .70160 .71257 0 0)" height="64.552" width="202.91" stroke="#008000" y="314.62" x="-220.43" stroke-width="4.427" fill="#0f0"/>
      <path id="path3787" d="m117.19 279.24-3.8723-4.469 6.8257-3.3388 4.5942 4.6661c1.7537-0.67765 3.6427-0.9535 5.6669-0.82753 2.0282 0.11572 4.4851 0.40959 7.3708 0.88163l-3.1197 6.245c-1.4021-0.25176-2.6397-0.3687-3.7129-0.35081-1.0732 0.0179-2.1552 0.2377-3.2462 0.65925-2.1309 0.82352-2.8816 1.7838-2.2519 2.8807 0.70401 0.48631 1.6689 0.70865 2.8947 0.667 1.2258-0.0416 2.7707-0.25943 4.6347-0.65353 1.8892-0.3685 2.9609-0.56661 3.2151-0.59435 2.3007-0.23649 4.7792-0.14938 7.4357 0.26135 2.6879 0.44273 4.9925 1.6112 6.9137 3.5052 3.0691 3.1172 2.8788 6.4048-0.57085 9.8631-0.35192 0.2859-0.71954 0.55582-1.1029 0.80976-0.36212 0.28985-0.64036 0.5076-0.83473 0.65325l4.5942 4.6661-6.8407 3.5165-5.0659-5.1452c-0.00001 0.00001-0.00001 0.00001 0 0-0.00001 0.00001-0.54211 0.12132-1.6263 0.36392-1.1469 0.29331-2.2422 0.49612-3.2858 0.60841-2.1815 0.12878-4.2373 0.14944-6.1673 0.0619-1.93-0.0875-2.9327-0.16953-3.0082-0.24619l1.765-6.8061c3.5773 0.53113 6.5792 0.32782 9.0058-0.60994 2.4674-0.95348 3.2262-1.9125 2.2766-2.877-0.77357-0.78565-1.9697-1.0641-3.5884-0.83545-0.40261 0.006-1.4414 0.15143-3.1165 0.43718-1.6601 0.31531-2.9708 0.53521-3.9319 0.65972-0.97766 0.12211-2.1501 0.16074-3.5173 0.11589-2.1568-0.0748-4.2222-0.47141-6.1965-1.1899-1.949-0.69294-3.4518-1.576-4.5084-2.6491-1.5252-1.6062-2.128-3.2692-1.8083-4.9888 0.32057-1.6758 1.0084-3.1144 2.0635-4.3158 0.74813-0.82695 1.4535-1.3685 2.1162-1.6246z" fill="#008000"/>
      <path id="path3789" d="m197.5 238.98-0.68942-0.79568 1.2153-0.59445 0.81798 0.83078c0.31225-0.12065 0.64857-0.16976 1.009-0.14734 0.3611 0.0206 0.79854 0.0729 1.3123 0.15698l-0.55546 1.1119c-0.24963-0.0448-0.46999-0.0656-0.66107-0.0625-0.19108 0.003-0.38373 0.0423-0.57796 0.11738-0.37941 0.14662-0.51305 0.31759-0.40094 0.5129 0.12533 0.0866 0.29714 0.12617 0.51539 0.11876 0.21825-0.007 0.49332-0.0462 0.8252-0.11636 0.33638-0.0656 0.52717-0.10088 0.57244-0.10582 0.40962-0.0421 0.85092-0.0266 1.3239 0.0465 0.47857 0.0788 0.88889 0.28686 1.231 0.62409 0.54644 0.555 0.51256 1.1404-0.10165 1.7561-0.0627 0.0509-0.1281 0.099-0.19635 0.14419-0.0644 0.0516-0.11402 0.0904-0.14861 0.11631l0.81798 0.83079-1.218 0.62609-0.90196-0.91608c0 0.00001-0.0965 0.0216-0.28956 0.0648-0.20423 0.0522-0.39921 0.0883-0.58502 0.10832-0.3884 0.0229-0.75443 0.0266-1.0981 0.011-0.34362-0.0156-0.52215-0.0302-0.53558-0.0438l0.31423-1.2118c0.63693 0.0946 1.1714 0.0584 1.6034-0.1086 0.43931-0.16976 0.57442-0.3405 0.40534-0.51224-0.13773-0.13988-0.35069-0.18947-0.63888-0.14875-0.0717 0.001-0.25665 0.027-0.55489 0.0778-0.29557 0.0562-0.52893 0.0953-0.70007 0.11746-0.17404 0.0218-0.38282 0.0286-0.62624 0.0206-0.384-0.0133-0.75175-0.0839-1.1032-0.21186-0.34702-0.12337-0.61459-0.2806-0.80271-0.47166-0.27201-0.28581-0.37888-0.58206-0.32196-0.88823 0.0571-0.29836 0.17953-0.5545 0.36738-0.7684 0.13321-0.14724 0.2588-0.24366 0.37679-0.28926zm9.1034-0.54237c2.1784 2.2124 1.0814 5.1123-2.4501 6.477s-8.1603 0.67749-10.339-1.535c-2.1784-2.2124-1.0814-5.1123 2.4501-6.477s8.1603-0.6775 10.339 1.535z" fill="#008000" fill-rule="evenodd"/>
      <path id="path3791" d="m229.98 271.97-0.68943-0.79568 1.2153-0.59444 0.81798 0.83078c0.31225-0.12065 0.64857-0.16977 1.009-0.14735 0.3611 0.0206 0.79854 0.0729 1.3123 0.15698l-0.55545 1.1119c-0.24963-0.0448-0.46999-0.0657-0.66107-0.0625-0.19109 0.003-0.38373 0.0423-0.57796 0.11737-0.37941 0.14663-0.51305 0.31759-0.40095 0.5129 0.12534 0.0866 0.29715 0.12617 0.5154 0.11876 0.21825-0.007 0.49332-0.0462 0.8252-0.11635 0.33638-0.0656 0.52717-0.10089 0.57244-0.10583 0.40962-0.0421 0.85091-0.0266 1.3239 0.0465 0.47857 0.0788 0.88889 0.28686 1.231 0.62409 0.54645 0.555 0.51256 1.1404-0.10164 1.7561-0.0627 0.0509-0.1281 0.099-0.19635 0.14419-0.0644 0.0516-0.11402 0.0904-0.14861 0.11632l0.81798 0.83078-1.218 0.6261-0.90196-0.91608s-0.0965 0.0216-0.28956 0.0648c-0.20423 0.0522-0.39922 0.0883-0.58502 0.10832-0.3884 0.0229-0.75443 0.0266-1.0981 0.011-0.34362-0.0156-0.52215-0.0302-0.53558-0.0438l0.31423-1.2118c0.63693 0.0946 1.1714 0.0584 1.6034-0.1086 0.43931-0.16976 0.57442-0.34051 0.40534-0.51225-0.13773-0.13988-0.3507-0.18946-0.63888-0.14875-0.0717 0.001-0.25665 0.027-0.55489 0.0779-0.29557 0.0561-0.52893 0.0953-0.70007 0.11745-0.17404 0.0218-0.38282 0.0286-0.62624 0.0206-0.384-0.0133-0.75175-0.0839-1.1032-0.21186-0.34702-0.12338-0.61459-0.2806-0.80271-0.47166-0.27201-0.28581-0.37888-0.58207-0.32196-0.88823 0.0571-0.29837 0.17953-0.55451 0.36738-0.76841 0.13321-0.14724 0.2588-0.24365 0.37679-0.28926zm9.1034-0.54237c2.1784 2.2124 1.0814 5.1123-2.4501 6.477s-8.1603 0.6775-10.339-1.535c-2.1784-2.2124-1.0814-5.1123 2.4501-6.477s8.1603-0.67749 10.339 1.535z" fill="#008000" fill-rule="evenodd"/>
      <path id="path3793" d="m61.769 336.97-0.68943-0.79568 1.2153-0.59444 0.81798 0.83078c0.31225-0.12065 0.64856-0.16977 1.009-0.14735 0.3611 0.0206 0.79854 0.0729 1.3123 0.15698l-0.55545 1.1119c-0.24963-0.0448-0.46999-0.0657-0.66107-0.0625-0.19109 0.003-0.38373 0.0423-0.57796 0.11737-0.37941 0.14663-0.51305 0.31759-0.40094 0.5129 0.12533 0.0866 0.29714 0.12617 0.51539 0.11876 0.21825-0.007 0.49332-0.0462 0.8252-0.11635 0.33638-0.0656 0.52717-0.10089 0.57244-0.10583 0.40962-0.0421 0.85092-0.0266 1.3239 0.0465 0.47857 0.0788 0.88889 0.28686 1.231 0.62409 0.54644 0.555 0.51256 1.1404-0.10164 1.7561-0.06265 0.0509-0.1281 0.099-0.19635 0.14419-0.06444 0.0516-0.11402 0.0904-0.14861 0.11632l0.81799 0.83078-1.218 0.6261-0.90196-0.91608c0.000005 0 0.000005 0 0 0 0.000005 0-0.09651 0.0216-0.28956 0.0648-0.20422 0.0522-0.39921 0.0883-0.58501 0.10832-0.38841 0.0229-0.75443 0.0266-1.0981 0.011-0.34362-0.0156-0.52215-0.0302-0.53558-0.0438l0.31423-1.2118c0.63693 0.0946 1.1714 0.0584 1.6034-0.1086 0.43931-0.16976 0.57443-0.34051 0.40534-0.51225-0.13774-0.13988-0.3507-0.18946-0.63889-0.14875-0.07174 0.001-0.25664 0.027-0.55489 0.0778-0.29557 0.0561-0.52893 0.0953-0.70007 0.11745-0.17404 0.0218-0.38282 0.0286-0.62624 0.0206-0.384-0.0133-0.75176-0.0839-1.1033-0.21186-0.34702-0.12338-0.61459-0.2806-0.80271-0.47167-0.272-0.2858-0.37888-0.58206-0.32196-0.88822 0.05707-0.29837 0.17953-0.55451 0.36738-0.76841 0.13321-0.14724 0.2588-0.24365 0.37679-0.28926zm9.1034-0.54237c2.1784 2.2124 1.0814 5.1123-2.4501 6.477s-8.1603 0.6775-10.339-1.535c-2.1784-2.2124-1.0814-5.1123 2.4501-6.477s8.1603-0.6775 10.339 1.535z" fill="#008000" fill-rule="evenodd"/>
      <path id="path3795" d="m29.844 304.54-0.68943-0.79568 1.2153-0.59445 0.81798 0.83078c0.31225-0.12065 0.64856-0.16976 1.009-0.14734 0.3611 0.0206 0.79854 0.0729 1.3123 0.15698l-0.55545 1.1119c-0.24963-0.0448-0.46999-0.0656-0.66107-0.0625-0.19109 0.003-0.38373 0.0423-0.57797 0.11738-0.37941 0.14662-0.51305 0.31759-0.40094 0.5129 0.12533 0.0866 0.29714 0.12617 0.51539 0.11876 0.21825-0.007 0.49332-0.0462 0.8252-0.11636 0.33639-0.0656 0.52717-0.10088 0.57244-0.10582 0.40962-0.0421 0.85092-0.0266 1.3239 0.0465 0.47857 0.0788 0.88889 0.28686 1.231 0.62409 0.54644 0.555 0.51256 1.1404-0.10164 1.7561-0.06265 0.0509-0.1281 0.099-0.19635 0.14419-0.06444 0.0516-0.11402 0.0904-0.14861 0.11631l0.81799 0.83079-1.218 0.62609-0.90196-0.91607c0.000005 0 0.000005 0 0 0 0.000005 0-0.09651 0.0216-0.28956 0.0648-0.20422 0.0522-0.39921 0.0883-0.58501 0.10832-0.38841 0.0229-0.75443 0.0266-1.0981 0.011-0.34362-0.0156-0.52215-0.0302-0.53558-0.0438l0.31423-1.2118c0.63693 0.0946 1.1714 0.0584 1.6034-0.1086 0.43931-0.16976 0.57443-0.3405 0.40535-0.51224-0.13774-0.13988-0.3507-0.18947-0.63889-0.14875-0.07174 0.001-0.25664 0.027-0.55489 0.0778-0.29557 0.0562-0.52893 0.0953-0.70007 0.11746-0.17404 0.0218-0.38282 0.0286-0.62624 0.0206-0.384-0.0133-0.75176-0.0839-1.1033-0.21186-0.34702-0.12337-0.61459-0.28059-0.80271-0.47166-0.272-0.28581-0.37888-0.58206-0.32196-0.88823 0.05707-0.29836 0.17953-0.5545 0.36738-0.7684 0.13321-0.14724 0.2588-0.24366 0.37679-0.28926zm9.1034-0.54237c2.1784 2.2124 1.0814 5.1123-2.4501 6.477s-8.1603 0.67749-10.339-1.535c-2.1784-2.2124-1.0814-5.1123 2.4501-6.477s8.1603-0.6775 10.339 1.535z" fill="#008000" fill-rule="evenodd"/>
      <rect id="rect3799" fill-rule="evenodd" transform="matrix(.93277 -.36046 .70160 .71257 0 0)" height="64.552" width="202.91" stroke="#008000" y="306.48" x="-214.31" stroke-width="4.427" fill="#0f0"/>
      <path id="path3801" fill="#008000" d="m117.19 271.24-3.8723-4.469 6.8257-3.3388 4.5942 4.6661c1.7537-0.67765 3.6427-0.9535 5.6669-0.82753 2.0282 0.11572 4.4851 0.40959 7.3708 0.88163l-3.1197 6.245c-1.4021-0.25176-2.6397-0.3687-3.7129-0.35081-1.0732 0.0179-2.1552 0.2377-3.2462 0.65925-2.1309 0.82352-2.8816 1.7838-2.2519 2.8807 0.70401 0.48631 1.6689 0.70865 2.8947 0.667 1.2258-0.0416 2.7707-0.25943 4.6347-0.65353 1.8892-0.3685 2.9609-0.56661 3.2151-0.59435 2.3007-0.23649 4.7792-0.14938 7.4357 0.26135 2.6879 0.44273 4.9925 1.6112 6.9137 3.5052 3.0691 3.1172 2.8788 6.4048-0.57085 9.8631-0.35192 0.2859-0.71954 0.55582-1.1029 0.80976-0.36212 0.28985-0.64036 0.5076-0.83473 0.65325l4.5942 4.6661-6.8407 3.5165-5.0659-5.1452c-0.00001 0.00001-0.00001 0.00001 0 0-0.00001 0.00001-0.54211 0.12132-1.6263 0.36392-1.1469 0.29331-2.2422 0.49612-3.2858 0.60841-2.1815 0.12878-4.2373 0.14944-6.1673 0.0619-1.93-0.0875-2.9327-0.16953-3.0082-0.24619l1.765-6.8061c3.5773 0.53113 6.5792 0.32782 9.0058-0.60994 2.4674-0.95348 3.2262-1.9125 2.2766-2.877-0.77357-0.78565-1.9697-1.0641-3.5884-0.83545-0.40261 0.006-1.4414 0.15143-3.1165 0.43718-1.6601 0.31531-2.9708 0.53521-3.9319 0.65972-0.97766 0.12211-2.1501 0.16074-3.5173 0.11589-2.1568-0.0748-4.2222-0.47141-6.1965-1.1899-1.949-0.69294-3.4518-1.576-4.5084-2.6491-1.5252-1.6062-2.128-3.2692-1.8083-4.9888 0.32057-1.6758 1.0084-3.1144 2.0635-4.3158 0.74813-0.82695 1.4535-1.3685 2.1162-1.6246z"/>
      <path id="path3803" d="m197.5 230.98-0.68942-0.79568 1.2153-0.59445 0.81798 0.83078c0.31225-0.12065 0.64857-0.16976 1.009-0.14734 0.3611 0.0206 0.79854 0.0729 1.3123 0.15698l-0.55546 1.1119c-0.24963-0.0448-0.46999-0.0656-0.66107-0.0625-0.19108 0.003-0.38373 0.0423-0.57796 0.11738-0.37941 0.14662-0.51305 0.31759-0.40094 0.5129 0.12533 0.0866 0.29714 0.12617 0.51539 0.11876 0.21825-0.007 0.49332-0.0462 0.8252-0.11636 0.33638-0.0656 0.52717-0.10088 0.57244-0.10582 0.40962-0.0421 0.85092-0.0266 1.3239 0.0465 0.47857 0.0788 0.88889 0.28686 1.231 0.62409 0.54644 0.555 0.51256 1.1404-0.10165 1.7561-0.0627 0.0509-0.1281 0.099-0.19635 0.14419-0.0644 0.0516-0.11402 0.0904-0.14861 0.11631l0.81798 0.83079-1.218 0.62609-0.90196-0.91608c0 0.00001-0.0965 0.0216-0.28956 0.0648-0.20423 0.0522-0.39921 0.0883-0.58502 0.10832-0.3884 0.0229-0.75443 0.0266-1.0981 0.011-0.34362-0.0156-0.52215-0.0302-0.53558-0.0438l0.31423-1.2118c0.63693 0.0946 1.1714 0.0584 1.6034-0.1086 0.43931-0.16976 0.57442-0.3405 0.40534-0.51224-0.13773-0.13988-0.35069-0.18947-0.63888-0.14875-0.0717 0.001-0.25665 0.027-0.55489 0.0778-0.29557 0.0562-0.52893 0.0953-0.70007 0.11746-0.17404 0.0218-0.38282 0.0286-0.62624 0.0206-0.384-0.0133-0.75175-0.0839-1.1032-0.21186-0.34702-0.12337-0.61459-0.2806-0.80271-0.47166-0.27201-0.28581-0.37888-0.58206-0.32196-0.88823 0.0571-0.29836 0.17953-0.5545 0.36738-0.7684 0.13321-0.14724 0.2588-0.24366 0.37679-0.28926zm9.1034-0.54237c2.1784 2.2124 1.0814 5.1123-2.4501 6.477s-8.1603 0.67749-10.339-1.535c-2.1784-2.2124-1.0814-5.1123 2.4501-6.477s8.1603-0.6775 10.339 1.535z" fill="#008000" fill-rule="evenodd"/>
      <path id="path3805" d="m229.98 263.97-0.68943-0.79568 1.2153-0.59444 0.81798 0.83078c0.31225-0.12065 0.64857-0.16977 1.009-0.14735 0.3611 0.0206 0.79854 0.0729 1.3123 0.15698l-0.55545 1.1119c-0.24963-0.0448-0.46999-0.0657-0.66107-0.0625-0.19109 0.003-0.38373 0.0423-0.57796 0.11737-0.37941 0.14663-0.51305 0.31759-0.40095 0.5129 0.12534 0.0866 0.29715 0.12617 0.5154 0.11876 0.21825-0.007 0.49332-0.0462 0.8252-0.11635 0.33638-0.0656 0.52717-0.10089 0.57244-0.10583 0.40962-0.0421 0.85091-0.0266 1.3239 0.0465 0.47857 0.0788 0.88889 0.28686 1.231 0.62409 0.54645 0.555 0.51256 1.1404-0.10164 1.7561-0.0627 0.0509-0.1281 0.099-0.19635 0.14419-0.0644 0.0516-0.11402 0.0904-0.14861 0.11632l0.81798 0.83078-1.218 0.6261-0.90196-0.91608s-0.0965 0.0216-0.28956 0.0648c-0.20423 0.0522-0.39922 0.0883-0.58502 0.10832-0.3884 0.0229-0.75443 0.0266-1.0981 0.011-0.34362-0.0156-0.52215-0.0302-0.53558-0.0438l0.31423-1.2118c0.63693 0.0946 1.1714 0.0584 1.6034-0.1086 0.43931-0.16976 0.57442-0.34051 0.40534-0.51225-0.13773-0.13988-0.3507-0.18946-0.63888-0.14875-0.0717 0.001-0.25665 0.027-0.55489 0.0779-0.29557 0.0561-0.52893 0.0953-0.70007 0.11745-0.17404 0.0218-0.38282 0.0286-0.62624 0.0206-0.384-0.0133-0.75175-0.0839-1.1032-0.21186-0.34702-0.12338-0.61459-0.2806-0.80271-0.47166-0.27201-0.28581-0.37888-0.58207-0.32196-0.88823 0.0571-0.29837 0.17953-0.55451 0.36738-0.76841 0.13321-0.14724 0.2588-0.24365 0.37679-0.28926zm9.1034-0.54237c2.1784 2.2124 1.0814 5.1123-2.4501 6.477s-8.1603 0.6775-10.339-1.535c-2.1784-2.2124-1.0814-5.1123 2.4501-6.477s8.1603-0.67749 10.339 1.535z" fill="#008000" fill-rule="evenodd"/>
      <path id="path3807" d="m61.769 328.97-0.68943-0.79568 1.2153-0.59444 0.81798 0.83078c0.31225-0.12065 0.64856-0.16977 1.009-0.14735 0.3611 0.0206 0.79854 0.0729 1.3123 0.15698l-0.55545 1.1119c-0.24963-0.0448-0.46999-0.0657-0.66107-0.0625-0.19109 0.003-0.38373 0.0423-0.57796 0.11737-0.37941 0.14663-0.51305 0.31759-0.40094 0.5129 0.12533 0.0866 0.29714 0.12617 0.51539 0.11876 0.21825-0.007 0.49332-0.0462 0.8252-0.11635 0.33638-0.0656 0.52717-0.10089 0.57244-0.10583 0.40962-0.0421 0.85092-0.0266 1.3239 0.0465 0.47857 0.0788 0.88889 0.28686 1.231 0.62409 0.54644 0.555 0.51256 1.1404-0.10164 1.7561-0.06265 0.0509-0.1281 0.099-0.19635 0.14419-0.06444 0.0516-0.11402 0.0904-0.14861 0.11632l0.81799 0.83078-1.218 0.6261-0.90196-0.91608c0.000005 0 0.000005 0 0 0 0.000005 0-0.09651 0.0216-0.28956 0.0648-0.20422 0.0522-0.39921 0.0883-0.58501 0.10832-0.38841 0.0229-0.75443 0.0266-1.0981 0.011-0.34362-0.0156-0.52215-0.0302-0.53558-0.0438l0.31423-1.2118c0.63693 0.0946 1.1714 0.0584 1.6034-0.1086 0.43931-0.16976 0.57443-0.34051 0.40534-0.51225-0.13774-0.13988-0.3507-0.18946-0.63889-0.14875-0.07174 0.001-0.25664 0.027-0.55489 0.0778-0.29557 0.0561-0.52893 0.0953-0.70007 0.11745-0.17404 0.0218-0.38282 0.0286-0.62624 0.0206-0.384-0.0133-0.75176-0.0839-1.1033-0.21186-0.34702-0.12338-0.61459-0.2806-0.80271-0.47167-0.272-0.2858-0.37888-0.58206-0.32196-0.88822 0.05707-0.29837 0.17953-0.55451 0.36738-0.76841 0.13321-0.14724 0.2588-0.24365 0.37679-0.28926zm9.1034-0.54237c2.1784 2.2124 1.0814 5.1123-2.4501 6.477s-8.1603 0.6775-10.339-1.535c-2.1784-2.2124-1.0814-5.1123 2.4501-6.477s8.1603-0.6775 10.339 1.535z" fill="#008000" fill-rule="evenodd"/>
      <path id="path3809" d="m29.844 296.54-0.68943-0.79568 1.2153-0.59445 0.81798 0.83078c0.31225-0.12065 0.64856-0.16976 1.009-0.14734 0.3611 0.0206 0.79854 0.0729 1.3123 0.15698l-0.55545 1.1119c-0.24963-0.0448-0.46999-0.0656-0.66107-0.0625-0.19109 0.003-0.38373 0.0423-0.57797 0.11738-0.37941 0.14662-0.51305 0.31759-0.40094 0.5129 0.12533 0.0866 0.29714 0.12617 0.51539 0.11876 0.21825-0.007 0.49332-0.0462 0.8252-0.11636 0.33639-0.0656 0.52717-0.10088 0.57244-0.10582 0.40962-0.0421 0.85092-0.0266 1.3239 0.0465 0.47857 0.0788 0.88889 0.28686 1.231 0.62409 0.54644 0.555 0.51256 1.1404-0.10164 1.7561-0.06265 0.0509-0.1281 0.099-0.19635 0.14419-0.06444 0.0516-0.11402 0.0904-0.14861 0.11631l0.81799 0.83079-1.218 0.62609-0.90196-0.91607c0.000005 0 0.000005 0 0 0 0.000005 0-0.09651 0.0216-0.28956 0.0648-0.20422 0.0522-0.39921 0.0883-0.58501 0.10832-0.38841 0.0229-0.75443 0.0266-1.0981 0.011-0.34362-0.0156-0.52215-0.0302-0.53558-0.0438l0.31423-1.2118c0.63693 0.0946 1.1714 0.0584 1.6034-0.1086 0.43931-0.16976 0.57443-0.3405 0.40535-0.51224-0.13774-0.13988-0.3507-0.18947-0.63889-0.14875-0.07174 0.001-0.25664 0.027-0.55489 0.0778-0.29557 0.0562-0.52893 0.0953-0.70007 0.11746-0.17404 0.0218-0.38282 0.0286-0.62624 0.0206-0.384-0.0133-0.75176-0.0839-1.1033-0.21186-0.34702-0.12337-0.61459-0.28059-0.80271-0.47166-0.272-0.28581-0.37888-0.58206-0.32196-0.88823 0.05707-0.29836 0.17953-0.5545 0.36738-0.7684 0.13321-0.14724 0.2588-0.24366 0.37679-0.28926zm9.1034-0.54237c2.1784 2.2124 1.0814 5.1123-2.4501 6.477s-8.1603 0.67749-10.339-1.535c-2.1784-2.2124-1.0814-5.1123 2.4501-6.477s8.1603-0.6775 10.339 1.535z" fill="#008000" fill-rule="evenodd"/>
      <rect id="rect3813" fill-rule="evenodd" transform="matrix(.93277 -.36046 .70160 .71257 0 0)" height="64.552" width="202.91" stroke="#008000" y="298.35" x="-208.19" stroke-width="4.427" fill="#0f0"/>
      <path id="path3815" d="m117.19 263.24-3.8723-4.469 6.8257-3.3388 4.5942 4.6661c1.7537-0.67765 3.6427-0.9535 5.6669-0.82753 2.0282 0.11572 4.4851 0.40959 7.3708 0.88163l-3.1197 6.245c-1.4021-0.25176-2.6397-0.3687-3.7129-0.35081-1.0732 0.0179-2.1552 0.2377-3.2462 0.65925-2.1309 0.82352-2.8816 1.7838-2.2519 2.8807 0.70401 0.48631 1.6689 0.70865 2.8947 0.667 1.2258-0.0416 2.7707-0.25943 4.6347-0.65353 1.8892-0.3685 2.9609-0.56661 3.2151-0.59435 2.3007-0.23649 4.7792-0.14938 7.4357 0.26135 2.6879 0.44273 4.9925 1.6112 6.9137 3.5052 3.0691 3.1172 2.8788 6.4048-0.57085 9.8631-0.35192 0.2859-0.71954 0.55582-1.1029 0.80976-0.36212 0.28985-0.64036 0.5076-0.83473 0.65325l4.5942 4.6661-6.8407 3.5165-5.0659-5.1452c-0.00001 0.00001-0.00001 0.00001 0 0-0.00001 0.00001-0.54211 0.12132-1.6263 0.36392-1.1469 0.29331-2.2422 0.49612-3.2858 0.60841-2.1815 0.12878-4.2373 0.14944-6.1673 0.0619-1.93-0.0875-2.9327-0.16953-3.0082-0.24619l1.765-6.8061c3.5773 0.53113 6.5792 0.32782 9.0058-0.60994 2.4674-0.95348 3.2262-1.9125 2.2766-2.877-0.77357-0.78565-1.9697-1.0641-3.5884-0.83545-0.40261 0.006-1.4414 0.15143-3.1165 0.43718-1.6601 0.31531-2.9708 0.53521-3.9319 0.65972-0.97766 0.12211-2.1501 0.16074-3.5173 0.11589-2.1568-0.0748-4.2222-0.47141-6.1965-1.1899-1.949-0.69294-3.4518-1.576-4.5084-2.6491-1.5252-1.6062-2.128-3.2692-1.8083-4.9888 0.32057-1.6758 1.0084-3.1144 2.0635-4.3158 0.74813-0.82695 1.4535-1.3685 2.1162-1.6246z" fill="#008000"/>
      <path id="path3817" d="m197.5 222.98-0.68942-0.79568 1.2153-0.59445 0.81798 0.83078c0.31225-0.12065 0.64857-0.16976 1.009-0.14734 0.3611 0.0206 0.79854 0.0729 1.3123 0.15698l-0.55546 1.1119c-0.24963-0.0448-0.46999-0.0656-0.66107-0.0625-0.19108 0.003-0.38373 0.0423-0.57796 0.11738-0.37941 0.14662-0.51305 0.31759-0.40094 0.5129 0.12533 0.0866 0.29714 0.12617 0.51539 0.11876 0.21825-0.007 0.49332-0.0462 0.8252-0.11636 0.33638-0.0656 0.52717-0.10088 0.57244-0.10582 0.40962-0.0421 0.85092-0.0266 1.3239 0.0465 0.47857 0.0788 0.88889 0.28686 1.231 0.62409 0.54644 0.555 0.51256 1.1404-0.10165 1.7561-0.0627 0.0509-0.1281 0.099-0.19635 0.14419-0.0644 0.0516-0.11402 0.0904-0.14861 0.11631l0.81798 0.83079-1.218 0.62609-0.90196-0.91608c0 0.00001-0.0965 0.0216-0.28956 0.0648-0.20423 0.0522-0.39921 0.0883-0.58502 0.10832-0.3884 0.0229-0.75443 0.0266-1.0981 0.011-0.34362-0.0156-0.52215-0.0302-0.53558-0.0438l0.31423-1.2118c0.63693 0.0946 1.1714 0.0584 1.6034-0.1086 0.43931-0.16976 0.57442-0.3405 0.40534-0.51224-0.13773-0.13988-0.35069-0.18947-0.63888-0.14875-0.0717 0.001-0.25665 0.027-0.55489 0.0778-0.29557 0.0562-0.52893 0.0953-0.70007 0.11746-0.17404 0.0218-0.38282 0.0286-0.62624 0.0206-0.384-0.0133-0.75175-0.0839-1.1032-0.21186-0.34702-0.12337-0.61459-0.2806-0.80271-0.47166-0.27201-0.28581-0.37888-0.58206-0.32196-0.88823 0.0571-0.29836 0.17953-0.5545 0.36738-0.7684 0.13321-0.14724 0.2588-0.24366 0.37679-0.28926zm9.1034-0.54237c2.1784 2.2124 1.0814 5.1123-2.4501 6.477s-8.1603 0.67749-10.339-1.535c-2.1784-2.2124-1.0814-5.1123 2.4501-6.477s8.1603-0.6775 10.339 1.535z" fill="#008000" fill-rule="evenodd"/>
      <path id="path3819" d="m229.98 255.97-0.68943-0.79568 1.2153-0.59444 0.81798 0.83078c0.31225-0.12065 0.64857-0.16977 1.009-0.14735 0.3611 0.0206 0.79854 0.0729 1.3123 0.15698l-0.55545 1.1119c-0.24963-0.0448-0.46999-0.0657-0.66107-0.0625-0.19109 0.003-0.38373 0.0423-0.57796 0.11737-0.37941 0.14663-0.51305 0.31759-0.40095 0.5129 0.12534 0.0866 0.29715 0.12617 0.5154 0.11876 0.21825-0.007 0.49332-0.0462 0.8252-0.11635 0.33638-0.0656 0.52717-0.10089 0.57244-0.10583 0.40962-0.0421 0.85091-0.0266 1.3239 0.0465 0.47857 0.0788 0.88889 0.28686 1.231 0.62409 0.54645 0.555 0.51256 1.1404-0.10164 1.7561-0.0627 0.0509-0.1281 0.099-0.19635 0.14419-0.0644 0.0516-0.11402 0.0904-0.14861 0.11632l0.81798 0.83078-1.218 0.6261-0.90196-0.91608s-0.0965 0.0216-0.28956 0.0648c-0.20423 0.0522-0.39922 0.0883-0.58502 0.10832-0.3884 0.0229-0.75443 0.0266-1.0981 0.011-0.34362-0.0156-0.52215-0.0302-0.53558-0.0438l0.31423-1.2118c0.63693 0.0946 1.1714 0.0584 1.6034-0.1086 0.43931-0.16976 0.57442-0.34051 0.40534-0.51225-0.13773-0.13988-0.3507-0.18946-0.63888-0.14875-0.0717 0.001-0.25665 0.027-0.55489 0.0779-0.29557 0.0561-0.52893 0.0953-0.70007 0.11745-0.17404 0.0218-0.38282 0.0286-0.62624 0.0206-0.384-0.0133-0.75175-0.0839-1.1032-0.21186-0.34702-0.12338-0.61459-0.2806-0.80271-0.47166-0.27201-0.28581-0.37888-0.58207-0.32196-0.88823 0.0571-0.29837 0.17953-0.55451 0.36738-0.76841 0.13321-0.14724 0.2588-0.24365 0.37679-0.28926zm9.1034-0.54237c2.1784 2.2124 1.0814 5.1123-2.4501 6.477s-8.1603 0.6775-10.339-1.535c-2.1784-2.2124-1.0814-5.1123 2.4501-6.477s8.1603-0.67749 10.339 1.535z" fill="#008000" fill-rule="evenodd"/>
      <path id="path3821" d="m61.769 320.97-0.68943-0.79568 1.2153-0.59444 0.81798 0.83078c0.31225-0.12065 0.64856-0.16977 1.009-0.14735 0.3611 0.0206 0.79854 0.0729 1.3123 0.15698l-0.55545 1.1119c-0.24963-0.0448-0.46999-0.0657-0.66107-0.0625-0.19109 0.003-0.38373 0.0423-0.57796 0.11737-0.37941 0.14663-0.51305 0.31759-0.40094 0.5129 0.12533 0.0866 0.29714 0.12617 0.51539 0.11876 0.21825-0.007 0.49332-0.0462 0.8252-0.11635 0.33638-0.0656 0.52717-0.10089 0.57244-0.10583 0.40962-0.0421 0.85092-0.0266 1.3239 0.0465 0.47857 0.0788 0.88889 0.28686 1.231 0.62409 0.54644 0.555 0.51256 1.1404-0.10164 1.7561-0.06265 0.0509-0.1281 0.099-0.19635 0.14419-0.06444 0.0516-0.11402 0.0904-0.14861 0.11632l0.81799 0.83078-1.218 0.6261-0.90196-0.91608c0.000005 0 0.000005 0 0 0 0.000005 0-0.09651 0.0216-0.28956 0.0648-0.20422 0.0522-0.39921 0.0883-0.58501 0.10832-0.38841 0.0229-0.75443 0.0266-1.0981 0.011-0.34362-0.0156-0.52215-0.0302-0.53558-0.0438l0.31423-1.2118c0.63693 0.0946 1.1714 0.0584 1.6034-0.1086 0.43931-0.16976 0.57443-0.34051 0.40534-0.51225-0.13774-0.13988-0.3507-0.18946-0.63889-0.14875-0.07174 0.001-0.25664 0.027-0.55489 0.0778-0.29557 0.0561-0.52893 0.0953-0.70007 0.11745-0.17404 0.0218-0.38282 0.0286-0.62624 0.0206-0.384-0.0133-0.75176-0.0839-1.1033-0.21186-0.34702-0.12338-0.61459-0.2806-0.80271-0.47167-0.272-0.2858-0.37888-0.58206-0.32196-0.88822 0.05707-0.29837 0.17953-0.55451 0.36738-0.76841 0.13321-0.14724 0.2588-0.24365 0.37679-0.28926zm9.1034-0.54237c2.1784 2.2124 1.0814 5.1123-2.4501 6.477s-8.1603 0.6775-10.339-1.535c-2.1784-2.2124-1.0814-5.1123 2.4501-6.477s8.1603-0.6775 10.339 1.535z" fill="#008000" fill-rule="evenodd"/>
      <path id="path3823" d="m29.844 288.54-0.68943-0.79568 1.2153-0.59445 0.81798 0.83078c0.31225-0.12065 0.64856-0.16976 1.009-0.14734 0.3611 0.0206 0.79854 0.0729 1.3123 0.15698l-0.55545 1.1119c-0.24963-0.0448-0.46999-0.0656-0.66107-0.0625-0.19109 0.003-0.38373 0.0423-0.57797 0.11738-0.37941 0.14662-0.51305 0.31759-0.40094 0.5129 0.12533 0.0866 0.29714 0.12617 0.51539 0.11876 0.21825-0.007 0.49332-0.0462 0.8252-0.11636 0.33639-0.0656 0.52717-0.10088 0.57244-0.10582 0.40962-0.0421 0.85092-0.0266 1.3239 0.0465 0.47857 0.0788 0.88889 0.28686 1.231 0.62409 0.54644 0.555 0.51256 1.1404-0.10164 1.7561-0.06265 0.0509-0.1281 0.099-0.19635 0.14419-0.06444 0.0516-0.11402 0.0904-0.14861 0.11631l0.81799 0.83079-1.218 0.62609-0.90196-0.91607c0.000005 0 0.000005 0 0 0 0.000005 0-0.09651 0.0216-0.28956 0.0648-0.20422 0.0522-0.39921 0.0883-0.58501 0.10832-0.38841 0.0229-0.75443 0.0266-1.0981 0.011-0.34362-0.0156-0.52215-0.0302-0.53558-0.0438l0.31423-1.2118c0.63693 0.0946 1.1714 0.0584 1.6034-0.1086 0.43931-0.16976 0.57443-0.3405 0.40535-0.51224-0.13774-0.13988-0.3507-0.18947-0.63889-0.14875-0.07174 0.001-0.25664 0.027-0.55489 0.0778-0.29557 0.0562-0.52893 0.0953-0.70007 0.11746-0.17404 0.0218-0.38282 0.0286-0.62624 0.0206-0.384-0.0133-0.75176-0.0839-1.1033-0.21186-0.34702-0.12337-0.61459-0.28059-0.80271-0.47166-0.272-0.28581-0.37888-0.58206-0.32196-0.88823 0.05707-0.29836 0.17953-0.5545 0.36738-0.7684 0.13321-0.14724 0.2588-0.24366 0.37679-0.28926zm9.1034-0.54237c2.1784 2.2124 1.0814 5.1123-2.4501 6.477s-8.1603 0.67749-10.339-1.535c-2.1784-2.2124-1.0814-5.1123 2.4501-6.477s8.1603-0.6775 10.339 1.535z" fill="#008000" fill-rule="evenodd"/>
      <path id="path3849" d="m162.66 261.75c10.198 10.358 5.0627 23.934-11.47 30.322-16.533 6.389-38.203 3.1718-48.401-7.1859s-5.0627-23.933 11.47-30.322 38.203-3.1717 48.401 7.1859z" stroke="#008000" stroke-width="1.0602" fill="none"/>
    </g>
  </g>
  <metadata>
    <rdf:RDF>
      <cc:Work>
        <dc:format>image/svg+xml</dc:format>
        <dc:type rdf:resource="http://purl.org/dc/dcmitype/StillImage"/>
        <cc:license rdf:resource="http://creativecommons.org/licenses/publicdomain/"/>
        <dc:publisher>
          <cc:Agent rdf:about="http://openclipart.org/">
            <dc:title>Openclipart</dc:title>
          </cc:Agent>
        </dc:publisher>
        <dc:title>Dollars</dc:title>
        <dc:date>2010-09-02T22:22:46</dc:date>
        <dc:description>Four dollars </dc:description>
        <dc:source>http://openclipart.org/detail/83443/dollars-by-jhnri4</dc:source>
        <dc:creator>
          <cc:Agent>
            <dc:title>jhnri4</dc:title>
          </cc:Agent>
        </dc:creator>
        <dc:subject>
          <rdf:Bag>
            <rdf:li>4</rdf:li>
            <rdf:li>clip art</rdf:li>
            <rdf:li>clipart</rdf:li>
            <rdf:li>cost</rdf:li>
            <rdf:li>currency</rdf:li>
            <rdf:li>dollars</rdf:li>
            <rdf:li>drawing</rdf:li>
            <rdf:li>euro</rdf:li>
            <rdf:li>four</rdf:li>
            <rdf:li>green</rdf:li>
            <rdf:li>how i did it</rdf:li>
            <rdf:li>inkscape</rdf:li>
            <rdf:li>media</rdf:li>
            <rdf:li>money</rdf:li>
            <rdf:li>price</rdf:li>
          </rdf:Bag>
        </dc:subject>
      </cc:Work>
      <cc:License rdf:about="http://creativecommons.org/licenses/publicdomain/">
        <cc:permits rdf:resource="http://creativecommons.org/ns#Reproduction"/>
        <cc:permits rdf:resource="http://creativecommons.org/ns#Distribution"/>
        <cc:permits rdf:resource="http://creativecommons.org/ns#DerivativeWorks"/>
      </cc:License>
    </rdf:RDF>
  </metadata>
</svg>
